<?xml version="1.0" encoding="UTF-8"?> <svg xmlns="http://www.w3.org/2000/svg" width="22" height="22" viewBox="0 0 22 22" fill="none"><path d="M11 21C12.3135 21.0016 13.6143 20.7437 14.8278 20.2411C16.0412 19.7384 17.1434 19.0009 18.071 18.071C19.0009 17.1434 19.7384 16.0412 20.2411 14.8278C20.7437 13.6143 21.0016 12.3135 21 11C21.0016 9.68655 20.7437 8.38572 20.2411 7.17225C19.7384 5.95878 19.0009 4.85659 18.071 3.92901C17.1434 2.99909 16.0412 2.26162 14.8278 1.75897C13.6143 1.25631 12.3135 0.998388 11 1.00001C9.68655 0.998388 8.38572 1.25631 7.17225 1.75897C5.95878 2.26162 4.85659 2.99909 3.92901 3.92901C2.99909 4.85659 2.26162 5.95878 1.75897 7.17225C1.25631 8.38572 0.998388 9.68655 1.00001 11C0.998388 12.3135 1.25631 13.6143 1.75897 14.8278C2.26162 16.0412 2.99909 17.1434 3.92901 18.071C4.85659 19.0009 5.95878 19.7384 7.17225 20.2411C8.38572 20.7437 9.68655 21.0016 11 21Z" stroke="#DFDF41" stroke-width="2" stroke-linejoin="round"></path><path d="M11 15.25C11.2652 15.25 11.5195 15.3554 11.707 15.543C11.8946 15.7305 12 15.9848 12 16.25C12 16.5152 11.8946 16.7695 11.707 16.957C11.5195 17.1446 11.2652 17.25 11 17.25C10.7348 17.25 10.4805 17.1446 10.293 16.957C10.1054 16.7695 10 16.5152 10 16.25C10 15.9848 10.1054 15.7305 10.293 15.543C10.4805 15.3554 10.7348 15.25 11 15.25Z" fill="#DFDF41" stroke="#DFDF41" stroke-width="0.5"></path><path d="M11 5V13" stroke="#DFDF41" stroke-width="2" stroke-linecap="round" stroke-linejoin="round"></path></svg> 