<?xml version="1.0" encoding="UTF-8"?> <svg xmlns="http://www.w3.org/2000/svg" width="51" height="50" viewBox="0 0 51 50" fill="none"> <rect x="0.5" width="50" height="50" rx="25" fill="#1669C0"></rect> <path d="M19.5968 16.8335C19.5965 17.4524 19.3504 18.0457 18.9126 18.4831C18.4748 18.9205 17.8812 19.166 17.2623 19.1657C16.6435 19.1654 16.0501 18.9193 15.6128 18.4814C15.1754 18.0436 14.9299 17.45 14.9302 16.8312C14.9305 16.2124 15.1766 15.619 15.6144 15.1816C16.0522 14.7442 16.6458 14.4987 17.2647 14.499C17.8835 14.4993 18.4769 14.7455 18.9143 15.1833C19.3516 15.6211 19.5972 16.2147 19.5968 16.8335ZM19.6668 20.8935H15.0002V35.5002H19.6668V20.8935ZM27.0402 20.8935H22.3968V35.5002H26.9935V27.8352C26.9935 23.5652 32.5585 23.1685 32.5585 27.8352V35.5002H37.1668V26.2485C37.1668 19.0502 28.9302 19.3185 26.9935 22.8535L27.0402 20.8935Z" fill="white"></path> </svg> 